<?xml version="1.0" encoding="UTF-8" standalone="no"?>
<!-- Created with Inkscape (http://www.inkscape.org/) -->

<svg
   xmlns:svg="http://www.w3.org/2000/svg"
   xmlns="http://www.w3.org/2000/svg"
   version="1.0"
   width="500"
   height="500"
   id="svg2">
  <defs
     id="defs4" />
  <g
     id="layer1">
    <path
       d="m 663.91965,627.25543 a 179.35739,175.39369 0 1 1 -358.71479,0 179.35739,175.39369 0 1 1 358.71479,0 z"
       transform="matrix(1.38605,0,0,1.417411,-421.6276,-639.0853)"
       id="path3063"
       style="fill:#ff0000;fill-opacity:1;fill-rule:nonzero;stroke:#7d7d7d;stroke-width:2;stroke-linecap:butt;stroke-linejoin:miter;stroke-miterlimit:4;stroke-opacity:1;stroke-dasharray:none;stroke-dashoffset:0" />
    <path
       d="m 390.42439,244.34138 a 140.71133,122.87468 0 1 1 -281.42267,0 140.71133,122.87468 0 1 1 281.42267,0 z"
       transform="matrix(1.42135,0,0,1.627675,-104.9296,-147.7083)"
       id="path6586"
       style="fill:#ffffff;fill-opacity:1;fill-rule:nonzero;stroke:none" />
    <g
       id="text2815"
       style="font-size:63px;font-style:normal;font-variant:normal;font-weight:normal;font-stretch:normal;text-align:start;line-height:100%;writing-mode:lr-tb;text-anchor:start;fill:#000000;fill-opacity:1;stroke:none;font-family:Drogowskaz;-inkscape-font-specification:Drogowskaz">
      <path
         d="m 225.39547,315.59088 0,33.75 -109.6875,0 0,-21.9342 79.3158,-106.31745 c 3.37269,-4.49877 5.05909,-9.56071 5.0592,-15.18585 -1.1e-4,-7.0311 -2.46105,-13.00765 -7.38281,-17.92969 -4.92198,-4.9217 -10.89853,-7.38264 -17.92969,-7.38281 -7.03133,1.7e-4 -13.00788,2.46111 -17.92969,7.38281 -4.92193,4.92204 -7.38287,10.89859 -7.38281,17.92969 l -33.75,0 c -3e-5,-16.31454 5.76504,-30.23695 17.29523,-41.76727 11.53009,-11.52996 25.4525,-17.29503 41.76727,-17.29523 16.3146,2e-4 30.23701,5.76527 41.76727,17.29523 11.53002,11.53032 17.29509,25.45273 17.29523,41.76727 -1.4e-4,13.50233 -4.07881,25.59552 -12.23602,36.2796 l -54.84375,73.4079 z"
         id="path2820"
         style="font-size:270px" />
      <path
         d="m 304.2828,197.88611 c -5.62505,16.31483 -8.43755,33.04974 -8.4375,50.20477 -5e-5,17.15524 2.81245,33.89014 8.4375,50.20477 1.69184,5.05925 4.85727,9.20659 9.49631,12.44202 4.63891,3.23551 9.91234,4.85325 15.82031,4.85321 5.90781,4e-5 11.18124,-1.6177 15.82031,-4.85321 4.63888,-3.23543 7.80156,-7.38277 9.48807,-12.44202 5.62489,-16.31463 8.43739,-33.04953 8.4375,-50.20477 -1.1e-4,-17.15503 -2.81261,-33.88994 -8.4375,-50.20477 -1.68651,-5.05905 -4.84919,-9.20638 -9.48807,-12.44202 -4.63907,-3.2353 -9.9125,-4.85304 -15.82031,-4.85321 -5.90797,1.7e-4 -11.1814,1.61791 -15.82031,4.85321 -4.63904,3.23564 -7.80447,7.38297 -9.49631,12.44202 z m -30.37171,112.64557 c -7.87721,-22.78559 -11.8158,-43.59916 -11.81579,-62.4408 -1e-5,-18.84143 3.93858,-39.65501 11.81579,-62.44079 4.21873,-11.52998 11.39005,-20.88071 21.51398,-28.05222 10.12385,-7.17113 21.51391,-10.75679 34.17023,-10.75699 12.65616,2e-4 24.04759,3.58586 34.17435,10.75699 10.12652,7.17151 17.29921,16.52224 21.51809,28.05222 7.87156,22.78578 11.80741,43.59936 11.80756,62.44079 -1.5e-4,18.84164 -3.936,39.65521 -11.80756,62.4408 -4.21888,11.53018 -11.39157,20.88091 -21.51809,28.05221 -10.12676,7.17133 -21.51819,10.75699 -34.17435,10.75699 -12.65632,0 -24.04638,-3.58566 -34.17023,-10.75699 -10.12393,-7.1713 -17.29525,-16.52203 -21.51398,-28.05221 z"
         id="path2822"
         style="font-size:270px" />
    </g>
  </g>
</svg>
