<svg xmlns="http://www.w3.org/2000/svg" viewBox="0 0 579 579"><path d="m25 290 264 264 264-264L289 26 25 290z" fill="#fff"/><path d="m6 290 283 283 284-283L289 6 6 290zm522 0L289 528 51 290 289 51l239 239z" fill="red"/><path d="M289 143h-2c-12 1-23 5-30 12a23 23 0 0 0-6 11l-1 4 1 3a72325 72325 0 0 1 21 139 21 21 0 0 0 22 13c10-1 17-9 18-18a59920 59920 0 0 1 20-142l-4-8-7-6a50 50 0 0 0-29-8h-3zm2 201h-1a30 30 0 0 0-24 14 34 34 0 0 0-6 23 34 34 0 0 0 11 22 31 31 0 0 0 20 7h8c7-2 14-7 18-14a34 34 0 0 0 6-23l-4-11a32 32 0 0 0-28-18z"/></svg>